<svg width="155" height="26" viewBox="0 0 155 26" fill="none" xmlns="http://www.w3.org/2000/svg">
<g clip-path="url(#clip0_2801_170)">
<path d="M12.4275 0.953177C12.8858 -0.135435 14.4468 -0.135434 14.9052 0.95318L17.6102 7.37836C17.8035 7.8373 18.2404 8.15087 18.7419 8.19059L25.7632 8.74669C26.9529 8.84091 27.4352 10.3076 26.5289 11.0746L21.1794 15.6016C20.7973 15.925 20.6303 16.4324 20.7471 16.9158L22.3815 23.6847C22.6583 24.8315 21.3955 25.7381 20.377 25.1235L14.3657 21.4961C13.9363 21.237 13.3963 21.237 12.967 21.4961L6.95566 25.1235C5.93716 25.7381 4.67428 24.8315 4.95119 23.6847L6.58557 16.9158C6.70231 16.4324 6.53544 15.925 6.15335 15.6016L0.803757 11.0746C-0.102616 10.3076 0.379765 8.84091 1.5694 8.74669L8.59081 8.19059C9.09234 8.15087 9.52922 7.8373 9.72243 7.37836L12.4275 0.953177Z" fill="#006B6A"/>
<path d="M44.4275 0.953177C44.8858 -0.135435 46.4468 -0.135434 46.9052 0.95318L49.6102 7.37836C49.8035 7.8373 50.2404 8.15087 50.7419 8.19059L57.7632 8.74669C58.9529 8.84091 59.4352 10.3076 58.5289 11.0746L53.1794 15.6016C52.7973 15.925 52.6303 16.4324 52.7471 16.9158L54.3815 23.6847C54.6583 24.8315 53.3955 25.7381 52.377 25.1235L46.3657 21.4961C45.9363 21.237 45.3963 21.237 44.967 21.4961L38.9557 25.1235C37.9372 25.7381 36.6743 24.8315 36.9512 23.6847L38.5856 16.9158C38.7023 16.4324 38.5354 15.925 38.1533 15.6016L32.8038 11.0746C31.8974 10.3076 32.3798 8.84091 33.5694 8.74669L40.5908 8.19059C41.0923 8.15087 41.5292 7.8373 41.7224 7.37836L44.4275 0.953177Z" fill="#006B6A"/>
<path d="M76.4275 0.953177C76.8858 -0.135435 78.4468 -0.135434 78.9052 0.95318L81.6102 7.37836C81.8035 7.8373 82.2404 8.15087 82.7419 8.19059L89.7632 8.74669C90.9529 8.84091 91.4352 10.3076 90.5289 11.0746L85.1794 15.6016C84.7973 15.925 84.6303 16.4324 84.7471 16.9158L86.3815 23.6847C86.6583 24.8315 85.3955 25.7381 84.377 25.1235L78.3657 21.4961C77.9363 21.237 77.3963 21.237 76.967 21.4961L70.9557 25.1235C69.9372 25.7381 68.6743 24.8315 68.9512 23.6847L70.5856 16.9158C70.7023 16.4324 70.5354 15.925 70.1533 15.6016L64.8038 11.0746C63.8974 10.3076 64.3798 8.84091 65.5694 8.74669L72.5908 8.19059C73.0923 8.15087 73.5292 7.8373 73.7224 7.37836L76.4275 0.953177Z" fill="#006B6A"/>
<path d="M108.428 0.953177C108.886 -0.135435 110.447 -0.135434 110.905 0.95318L113.61 7.37836C113.804 7.8373 114.24 8.15087 114.742 8.19059L121.763 8.74669C122.953 8.84091 123.435 10.3076 122.529 11.0746L117.179 15.6016C116.797 15.925 116.63 16.4324 116.747 16.9158L118.381 23.6847C118.658 24.8315 117.396 25.7381 116.377 25.1235L110.366 21.4961C109.936 21.237 109.396 21.237 108.967 21.4961L102.956 25.1235C101.937 25.7381 100.674 24.8315 100.951 23.6847L102.586 16.9158C102.702 16.4324 102.535 15.925 102.153 15.6016L96.8038 11.0746C95.8974 10.3076 96.3798 8.84091 97.5694 8.74669L104.591 8.19059C105.092 8.15087 105.529 7.8373 105.722 7.37836L108.428 0.953177Z" fill="#006B6A"/>
<path d="M140.427 0.953177C140.886 -0.135435 142.447 -0.135434 142.905 0.95318L145.61 7.37836C145.803 7.8373 146.24 8.15087 146.742 8.19059L153.763 8.74669C154.953 8.84091 155.435 10.3076 154.529 11.0746L149.179 15.6016C148.797 15.925 148.63 16.4324 148.747 16.9158L150.381 23.6847C150.658 24.8315 149.395 25.7381 148.377 25.1235L142.365 21.4961C141.936 21.237 141.396 21.237 140.967 21.4961L134.955 25.1235C133.937 25.7381 132.674 24.8315 132.951 23.6847L134.585 16.9158C134.702 16.4324 134.535 15.925 134.153 15.6016L128.804 11.0746C127.897 10.3076 128.38 8.84091 129.569 8.74669L136.591 8.19059C137.092 8.15087 137.529 7.8373 137.722 7.37836L140.427 0.953177Z" fill="#006B6A"/>
</g>
<defs>
<clipPath id="clip0_2801_170">
<rect width="154.666" height="25.1852" fill="white" transform="translate(0.333008 0.136719)"/>
</clipPath>
</defs>
</svg>
